<svg version="1.1" id="Layer_1" xmlns="http://www.w3.org/2000/svg" xmlns:xlink="http://www.w3.org/1999/xlink" x="0px" y="0px"
	 width="100%" viewBox="0 0 1024 1024" enable-background="new 0 0 1024 1024" xml:space="preserve">
<path fill="#000000" opacity="1.000000" stroke="none" 
	d="
M637.531372,1.000000 
	C628.163208,12.123733 616.955933,21.873528 606.482239,32.360180 
	C557.377258,81.525642 508.113831,130.532928 458.877136,179.566696 
	C441.289154,197.082184 423.572937,214.469177 406.034637,232.033981 
	C403.642212,234.429977 401.906799,234.711960 398.741180,233.226547 
	C364.004242,216.926575 321.313873,222.220566 293.354523,254.797272 
	C277.251984,273.559082 269.872192,295.122406 271.407379,319.711273 
	C271.883606,327.338959 273.452148,334.847260 275.822571,342.126221 
	C276.971069,345.653046 276.420410,348.034271 273.599457,350.833282 
	C233.854935,390.268799 194.294373,429.889648 154.642303,469.418549 
	C118.294716,505.653198 81.884804,541.825378 45.514080,578.036804 
	C30.875450,592.611328 16.268093,607.217285 1.323253,621.904419 
	C1.000000,525.645752 1.000000,429.291534 1.242840,332.711243 
	C7.199862,338.091034 14.487896,338.310669 21.104094,336.137390 
	C29.124401,333.502930 36.835365,333.535675 44.687218,335.306580 
	C50.970020,336.723572 56.177967,334.779510 61.115028,331.401154 
	C64.271240,329.241333 67.402611,326.984283 70.240639,324.432251 
	C77.616188,317.799866 86.500900,313.527802 94.947029,308.641907 
	C100.536179,305.408752 105.004272,301.101837 108.715591,296.194977 
	C111.652206,292.312378 114.493248,288.213654 118.376137,285.580200 
	C124.978004,281.102631 128.914444,275.009644 131.112152,267.766663 
	C134.272369,257.351501 141.473251,251.468842 151.364838,248.310593 
	C158.483078,246.037811 163.546631,241.708847 165.997452,234.559189 
	C167.616959,229.834747 169.102112,225.063599 170.763763,220.354416 
	C172.426193,215.643036 174.083130,210.955475 178.375198,207.728485 
	C179.598434,206.808792 180.178223,204.995804 180.971283,203.547653 
	C185.258911,195.718262 185.232376,186.839920 186.890289,178.393555 
	C188.293472,171.244919 189.619293,164.544922 196.839645,160.503616 
	C206.576035,155.054062 212.362717,145.038635 221.157669,138.479141 
	C227.407852,133.817612 232.827194,127.931274 240.034943,124.674889 
	C245.912552,122.019432 250.274872,117.559128 251.477234,111.739571 
	C252.806625,105.305077 256.565430,102.288002 261.831696,100.177048 
	C265.529541,98.694786 269.396301,97.616943 273.222717,96.476067 
	C280.795349,94.218216 287.502747,90.688179 291.085327,83.235237 
	C293.883362,77.414391 299.000885,74.409485 304.177277,71.382584 
	C307.662201,69.344757 310.717896,67.064842 312.975647,63.501293 
	C317.417206,56.490963 322.072083,49.587330 327.080444,42.974106 
	C330.672607,38.230907 334.303131,32.774719 340.240204,31.109371 
	C348.138733,28.893856 354.430450,23.845373 361.712585,20.639038 
	C364.187897,19.549128 366.290771,17.529285 365.651978,14.895303 
	C364.551178,10.356088 365.751617,6.465463 367.873657,2.684347 
	C366.704926,1.999314 365.852448,1.499659 365.000000,1.000002 
	C455.687561,1.000000 546.375122,1.000000 637.531372,1.000000 
z"/>
<path fill="#000000" opacity="1.000000" stroke="none" 
	d="
M812.764404,559.017883 
	C800.688782,560.886963 789.050049,562.721130 777.384766,564.367310 
	C774.115845,564.828674 772.760254,566.684937 772.437622,569.629822 
	C770.329590,588.875061 765.794678,607.564087 759.380432,625.796143 
	C758.226746,629.075439 759.042053,630.858643 761.780823,632.791321 
	C774.436707,641.722229 786.910950,650.910217 799.530884,659.892761 
	C805.985229,664.486877 806.608826,665.725952 803.577637,673.129639 
	C798.573181,685.353088 791.537720,696.492798 784.767273,707.775940 
	C782.411377,711.702148 779.441406,709.596741 776.890869,708.815796 
	C763.521484,704.722656 750.251709,700.305298 736.900024,696.152832 
	C725.857056,692.718445 728.308960,691.939209 720.956421,700.798828 
	C710.106689,713.872131 698.902954,726.664062 686.860046,738.657593 
	C683.551392,741.952698 683.077820,744.560608 685.459290,748.556763 
	C692.365417,760.145081 698.976501,771.910034 705.643005,783.640015 
	C709.461609,790.359070 709.413452,790.819031 703.483765,795.529968 
	C693.299194,803.621277 682.423645,810.712952 671.496460,817.758728 
	C667.213806,820.520142 664.348145,819.835083 661.037415,816.636841 
	C652.171082,808.071777 642.726196,800.055847 634.370178,791.026794 
	C626.577454,782.606445 619.502747,779.156067 607.729980,784.725464 
	C593.510193,791.452393 577.811157,794.754028 562.191895,797.418701 
	C558.048706,798.125549 555.943909,800.064270 555.332886,804.411682 
	C553.164001,819.842590 550.623657,835.221008 548.371460,850.640808 
	C547.968567,853.399231 546.733643,854.917175 544.082703,855.308044 
	C533.872437,856.813110 523.586731,858.051025 513.312256,856.803955 
	C508.689514,856.242859 504.015228,857.010132 499.429260,855.661743 
	C496.521606,854.806885 495.011658,853.644836 494.554871,850.385071 
	C492.416321,835.124573 489.807159,819.929077 487.752563,804.658386 
	C487.184052,800.432983 485.351074,798.451294 481.399506,797.733887 
	C462.185486,794.245728 443.559540,788.667114 425.322418,781.749512 
	C421.676270,780.366455 418.698181,780.904297 415.829773,783.719727 
	C405.962921,793.404114 395.956085,802.945801 386.003723,812.543091 
	C385.763947,812.774353 385.541687,813.023743 385.302765,813.255981 
	C377.129486,821.202942 376.603638,821.241577 367.235931,815.014771 
	C357.663727,808.652039 348.012512,802.404053 338.998627,795.243958 
	C333.345306,790.753296 333.201385,790.348755 336.676392,784.184998 
	C343.221252,772.576050 349.678101,760.911865 356.513855,749.475281 
	C359.280396,744.846680 358.997986,741.745667 355.041534,737.772095 
	C342.462036,725.138245 330.599945,711.808594 319.410431,697.920959 
	C316.358276,694.132812 313.658661,693.313782 308.848938,694.939148 
	C293.402863,700.159119 277.712799,704.654175 262.150848,709.537292 
	C259.758087,710.288086 258.082855,710.239563 256.687103,707.861633 
	C250.023941,696.509705 243.406219,685.126648 238.441696,672.905151 
	C235.457718,665.559326 235.982330,664.628418 242.273102,660.061829 
	C254.941010,650.865845 267.535492,641.568726 280.162750,632.316711 
	C281.935455,631.017761 283.515717,629.906799 282.563721,627.083496 
	C276.179749,608.151245 271.968750,588.684082 268.837769,568.983032 
	C268.349762,565.912231 266.921570,564.669617 264.089417,564.266479 
	C250.456299,562.326111 236.854813,560.143066 223.195892,558.410522 
	C211.684006,556.950317 211.665497,556.881531 210.548691,545.250427 
	C209.138779,530.566956 209.527939,516.037354 212.547806,501.582306 
	C213.657394,496.271149 213.983307,496.009521 218.847198,498.939209 
	C229.407104,505.299835 239.918457,511.737885 251.141907,516.904053 
	C259.082306,520.559021 267.222687,523.260681 276.152527,522.738831 
	C288.768280,522.001648 297.671295,515.723450 303.470551,504.700775 
	C305.812805,500.248810 306.115967,496.783600 301.844727,492.503448 
	C298.334351,488.985718 295.388641,487.148956 290.451355,487.280701 
	C286.278198,487.391998 283.057007,488.099213 280.761017,491.894775 
	C278.754211,495.212250 275.761475,495.860657 272.109436,494.345062 
	C267.809753,492.560669 263.361572,491.137054 259.037994,489.406525 
	C252.162842,486.654633 250.986908,484.586578 251.780731,477.220093 
	C252.485901,470.676331 246.707794,465.121552 240.114563,466.192963 
	C235.896698,466.878326 233.135513,465.621704 231.441833,461.501831 
	C229.220535,456.098541 227.228638,450.643311 225.811111,444.976929 
	C224.639221,440.292389 225.770447,436.774994 230.668106,435.044708 
	C231.761642,434.658356 232.781952,434.063141 233.832535,433.556946 
	C239.788483,430.687286 240.728943,424.645752 235.968185,419.847168 
	C229.599075,413.427460 229.552963,413.399811 234.209946,405.632843 
	C236.263809,402.207397 238.549881,398.921265 240.727173,395.569733 
	C243.170914,391.808105 246.427048,390.936279 250.669876,392.335632 
	C256.937103,394.402649 268.067444,388.615540 269.533081,382.228973 
	C270.803955,376.691162 273.863068,374.613983 279.335052,374.537537 
	C284.142334,374.470367 288.922638,373.592072 293.774597,373.575562 
	C297.778900,373.561859 300.739288,374.891052 301.806549,378.813812 
	C303.220001,384.009003 306.437561,386.480194 311.579651,388.117767 
	C316.885193,389.807343 321.511200,392.240540 326.909821,388.316345 
	C329.351593,386.541473 331.632141,388.706604 333.306396,390.673492 
	C337.523132,395.627136 341.259033,400.937378 344.850922,406.358429 
	C346.695282,409.142120 346.720398,411.544006 344.129150,413.876343 
	C343.150726,414.756989 342.411652,415.907410 341.584198,416.951263 
	C337.634430,421.934357 339.130280,426.924103 345.105469,428.637390 
	C360.165283,432.955658 357.785034,431.911957 356.342896,444.902100 
	C356.269470,445.563721 356.265350,446.234863 356.162262,446.891083 
	C354.348022,458.441040 354.345795,458.440674 343.094727,460.853790 
	C329.250366,463.823090 321.411316,473.092072 321.126831,487.082062 
	C321.001495,493.243866 321.108795,499.414490 321.266754,505.577057 
	C321.492798,514.395447 325.573853,521.269775 332.788269,526.035767 
	C335.600494,527.893616 336.353363,529.918884 336.341949,532.998535 
	C336.264160,553.996277 336.322815,574.994385 336.311005,595.992432 
	C336.299622,616.213318 342.997253,633.148376 360.284607,644.848999 
	C362.174896,646.128418 362.697571,647.458496 362.621490,649.781982 
	C362.371674,657.409180 361.753967,665.047302 363.301941,672.665710 
	C365.598969,683.971008 370.673401,693.920166 380.833313,699.372314 
	C392.502380,705.634399 402.386963,714.313721 413.627472,721.101501 
	C438.773041,736.286133 465.747314,746.707336 494.772827,750.403381 
	C552.312744,757.730225 604.124207,742.619141 650.360962,707.891296 
	C652.404053,706.356750 654.513306,705.294495 656.954590,704.555908 
	C674.751648,699.171387 686.351685,684.031067 685.610596,665.355896 
	C685.167480,654.187012 686.660278,645.478882 696.275330,637.637634 
	C707.408569,628.558167 711.686829,614.961365 711.764832,600.500061 
	C711.885193,578.169739 711.867859,555.837952 711.738770,533.507751 
	C711.719299,530.153442 712.640930,528.111389 715.559265,526.189819 
	C722.159790,521.843750 725.675781,515.346375 726.730347,507.523621 
	C726.885681,506.370880 726.996094,505.205597 727.260620,504.077393 
	C727.358032,503.661957 727.840881,503.336884 728.116272,503.008301 
	C729.607361,503.140381 730.130554,504.249878 730.685364,505.242249 
	C739.385254,520.803223 758.665405,526.655762 775.821350,521.734985 
	C792.991272,516.810181 808.142761,507.740936 823.482361,499.018829 
	C824.896484,498.214752 826.192749,497.032837 828.249634,497.077148 
	C830.981567,499.745789 830.092773,503.464294 830.592041,506.767548 
	C832.738159,520.966858 833.100464,535.199646 831.360413,549.484985 
	C830.740845,554.571411 828.981750,557.778931 823.020508,557.489197 
	C819.774902,557.331421 816.469666,558.397644 812.764404,559.017883 
M303.328644,406.119934 
	C298.845734,403.724091 293.993103,402.305573 288.983124,402.464233 
	C268.110748,403.125275 253.306732,422.624664 257.392822,441.711121 
	C260.305725,455.317535 272.678925,466.582092 286.286377,467.623596 
	C301.195221,468.764709 314.297333,460.624451 319.419952,447.037933 
	C325.274414,431.510406 319.388855,416.039764 303.328644,406.119934 
z"/>
<path fill="#000000" opacity="1.000000" stroke="none" 
	d="
M523.928955,296.044800 
	C546.267090,297.585022 559.810120,309.472046 566.408264,329.981384 
	C567.045715,331.963043 567.968872,333.361359 570.469666,333.687927 
	C588.402710,336.029602 606.249634,338.849182 623.983887,342.497070 
	C654.101196,348.692078 672.970825,367.985687 678.382935,398.141205 
	C682.776733,422.622559 687.732727,447.002747 692.353516,471.444031 
	C692.969177,474.700562 694.608154,475.973511 697.842896,475.683685 
	C708.054688,474.768707 714.474548,481.775269 713.157532,491.649475 
	C712.699829,495.081177 713.235840,498.635620 713.166199,502.130981 
	C713.026184,509.159973 710.271057,512.844788 703.407593,514.502747 
	C699.381714,515.475220 699.339722,518.223694 699.342041,521.352417 
	C699.360718,547.176636 699.288086,573.001099 699.369202,598.825073 
	C699.420593,615.202820 692.130249,627.657349 678.900024,636.625366 
	C674.272217,639.762268 671.796265,643.030579 672.258484,648.780884 
	C672.697632,654.243225 672.348877,659.769287 672.337341,665.267334 
	C672.306702,679.804443 662.100769,690.240356 647.732300,690.348206 
	C639.081360,690.413086 630.410583,690.002502 621.782593,690.453247 
	C607.830994,691.182190 598.816895,677.025024 598.854126,667.457031 
	C598.876770,661.625916 598.819214,655.791931 598.988159,649.964844 
	C599.103333,645.990967 597.563171,644.242676 593.436157,644.248657 
	C547.286011,644.315308 501.135712,644.297607 454.985474,644.266235 
	C451.051819,644.263550 449.173584,645.879944 449.281738,649.971741 
	C449.435760,655.798889 449.354187,661.633484 449.313293,667.464417 
	C449.221985,680.482971 439.622101,690.346802 426.709839,690.394287 
	C417.895050,690.426758 409.079224,690.632385 400.261658,690.604919 
	C387.004364,690.563599 377.063538,677.794250 376.718109,666.601257 
	C376.512573,659.942627 376.589600,653.273682 376.623871,646.609802 
	C376.644165,642.658691 375.275116,639.954651 371.686462,637.648926 
	C356.626312,627.972534 348.539886,614.299500 348.644897,596.026611 
	C348.786591,571.369446 348.600861,546.710510 348.733490,522.053284 
	C348.755737,517.923889 348.243652,515.312561 343.386261,514.282959 
	C338.426147,513.231506 335.607361,509.529449 335.577911,504.069550 
	C335.550110,498.910736 335.011414,493.744568 335.177979,488.597168 
	C335.446564,480.296204 339.731232,475.731415 347.945312,475.894257 
	C353.172791,475.997955 354.749359,473.866669 355.619415,469.259430 
	C360.449829,443.679840 365.300873,418.100616 370.545563,392.603668 
	C376.140320,365.405151 394.355957,347.990845 421.845490,342.643341 
	C439.607849,339.188049 457.446747,336.219147 475.343597,333.563080 
	C477.958710,333.174957 480.748016,333.241974 481.874298,329.466309 
	C487.751709,309.763214 500.660187,298.207489 521.520874,296.276367 
	C522.182800,296.215088 522.840576,296.109467 523.928955,296.044800 
M640.177917,375.307098 
	C634.814758,370.873260 628.717346,367.856781 621.937622,366.420898 
	C603.401672,362.495178 584.520996,360.668182 565.880981,357.366699 
	C561.736877,356.632690 559.300049,358.295807 556.934143,361.801300 
	C549.371460,373.006500 538.633911,378.981201 525.012024,379.359131 
	C509.626678,379.786011 498.228424,372.837708 489.989136,360.163635 
	C488.747711,358.253998 487.895264,356.190186 484.690247,356.722443 
	C464.531921,360.070007 444.280609,362.888519 424.179291,366.538574 
	C408.477814,369.389709 395.474457,383.131165 392.520111,398.830994 
	C387.395874,426.061981 382.398407,453.316895 377.249146,480.543091 
	C374.628113,494.401733 370.966217,508.207245 370.553009,522.277222 
	C369.829407,546.919250 370.292084,571.598022 370.369446,596.261047 
	C370.416870,611.381836 380.679321,621.803345 395.772797,621.810486 
	C481.927002,621.851196 568.081299,621.827148 654.235413,621.736450 
	C668.308777,621.721619 677.682190,612.130249 677.719177,598.121338 
	C677.768494,579.457458 677.353210,560.782898 677.856140,542.132324 
	C678.276794,526.533264 676.027405,511.340302 673.105103,496.147156 
	C667.212219,465.509827 661.175903,434.897736 655.623291,404.198456 
	C653.594666,392.982452 649.899353,383.042908 640.177917,375.307098 
M505.237213,347.104645 
	C506.453094,348.885925 507.479980,350.839111 508.917145,352.419067 
	C515.555420,359.716949 526.617615,360.700165 535.910583,354.950745 
	C543.556702,350.220184 546.804993,340.812378 543.731873,332.298248 
	C539.765869,321.310242 527.887695,315.528442 517.101685,319.335785 
	C505.546844,323.414490 500.726562,334.128357 505.237213,347.104645 
z"/>
<path fill="#000000" opacity="1.000000" stroke="none" 
	d="
M621.523804,293.806122 
	C625.705627,263.372650 650.359375,235.691879 685.393799,234.510605 
	C704.974365,233.850403 722.103638,239.228241 736.921021,252.001984 
	C737.799561,252.759369 738.640991,253.571121 739.414001,254.434265 
	C739.718323,254.774017 739.787598,255.324234 739.993286,255.854294 
	C738.780701,258.245331 736.281372,258.502136 734.186157,259.265106 
	C726.364624,262.113373 718.577698,265.095245 710.631592,267.554657 
	C693.921997,272.726410 692.678467,289.933105 697.929321,299.957825 
	C704.220947,311.969482 716.991821,317.509674 730.010315,313.527893 
	C737.325623,311.290466 744.484436,308.539398 751.706421,305.999115 
	C756.692688,304.245270 757.455200,304.601776 757.287781,309.739441 
	C756.884766,322.102325 752.410767,333.158997 745.398132,343.129303 
	C731.224792,363.280640 711.358643,372.634216 687.015137,373.394226 
	C682.825562,373.525055 680.532593,372.155975 678.406738,368.394043 
	C667.775146,349.580658 651.960571,337.480194 630.592590,333.120239 
	C627.341187,332.456757 625.478394,331.059357 624.419739,327.674866 
	C620.989014,316.706604 619.514648,305.649689 621.523804,293.806122 
M684.851196,351.652618 
	C700.856140,352.061279 712.840271,348.463745 717.927673,341.411285 
	C693.479797,345.079376 672.404419,340.218201 662.004089,315.759979 
	C651.707458,291.545563 661.876038,272.384308 681.506714,257.047363 
	C678.973267,255.606110 677.461365,256.550903 675.928894,257.059235 
	C655.425415,263.860138 642.597046,281.149078 642.395813,302.889435 
	C642.181946,326.004395 657.035828,348.173248 684.851196,351.652618 
z"/>
<path fill="#000000" opacity="1.000000" stroke="none" 
	d="
M583.888428,322.309204 
	C575.008179,322.912720 571.759216,317.118195 567.397400,311.127502 
	C562.812439,304.830353 562.916443,300.673279 566.121948,293.695496 
	C579.457214,264.667175 564.298889,229.493591 531.343811,221.886108 
	C504.418488,215.670593 477.395386,231.454590 470.441315,262.025421 
	C467.044586,276.957794 470.950287,290.405640 479.688782,302.547028 
	C482.250702,306.106567 482.069061,308.402313 480.184723,312.561066 
	C476.815002,319.998077 471.400360,321.964935 464.270508,322.344788 
	C461.465881,322.494232 458.667023,323.081482 455.908905,323.671936 
	C453.604156,324.165283 452.021790,323.331940 450.789520,321.518585 
	C449.484070,319.597534 449.753113,317.646637 451.097382,315.950531 
	C453.060333,313.473785 455.159729,311.099731 457.288635,308.761749 
	C458.926697,306.962830 459.516052,305.225922 458.040344,302.972290 
	C457.140747,301.598480 456.266205,300.008270 456.046082,298.422821 
	C454.844208,289.765442 448.618652,287.820190 441.418182,287.465424 
	C436.510956,287.223602 434.680145,284.776184 434.620575,280.162476 
	C434.556091,275.172760 434.124115,270.188141 434.041992,265.198151 
	C433.984344,261.697540 435.211090,258.596436 439.258789,258.631256 
	C451.249176,258.734253 454.882172,250.424805 457.831665,241.045944 
	C458.502167,238.913818 457.914764,237.693542 456.766388,236.126801 
	C445.606873,220.902191 447.070679,224.584290 458.475067,211.907654 
	C467.045624,202.380951 468.302765,202.332291 478.985535,210.064987 
	C482.255737,212.432129 484.413513,211.664139 487.863739,210.493286 
	C497.895691,207.088928 504.802704,201.595673 505.979736,190.389435 
	C506.244110,187.872437 508.309906,186.872894 511.011688,186.472748 
	C517.707581,185.481079 524.314026,186.399734 530.955933,186.706345 
	C532.448364,186.775253 533.443359,187.537872 534.086182,188.822433 
	C534.458618,189.566742 535.025635,190.312408 535.096130,191.094345 
	C536.160950,202.909302 544.910645,207.324890 554.245972,211.349396 
	C556.555054,212.344864 558.058960,212.114883 560.092529,210.677094 
	C572.646240,201.801422 573.587769,201.831375 583.667053,213.269821 
	C593.307495,224.210205 594.703308,221.194138 584.208557,234.667496 
	C582.193115,237.254974 582.250977,239.262695 582.997925,242.330231 
	C585.300171,251.785278 589.883850,258.048523 600.509705,258.250549 
	C604.940796,258.334808 606.793335,260.883484 606.431763,265.508362 
	C606.043213,270.478546 606.359253,275.501129 606.287720,280.499695 
	C606.232361,284.370392 604.329956,287.274536 600.396729,287.208527 
	C588.993225,287.017242 584.784668,294.203125 582.245056,303.664520 
	C581.677429,305.779633 581.973816,307.113647 583.447510,308.520050 
	C585.374146,310.358704 587.255981,312.251892 589.052063,314.217621 
	C590.925720,316.268250 593.433716,318.188171 591.453979,321.531891 
	C589.443054,324.928284 586.736938,322.469635 583.888428,322.309204 
z"/>
<path fill="#000000" opacity="1.000000" stroke="none" 
	d="
M531.345947,677.832397 
	C550.266113,677.061218 567.606262,671.694031 585.015198,663.791077 
	C584.912720,685.202209 594.891052,698.547913 614.525330,704.997620 
	C552.492554,740.230896 475.998291,732.569702 433.073029,705.181519 
	C453.986481,699.552002 463.290771,685.352356 463.640656,665.244629 
	C466.143860,664.160339 467.486145,665.376282 468.924347,666.093445 
	C487.207733,675.211243 506.905151,677.712952 526.966064,678.469116 
	C528.269653,678.518311 529.591125,678.095886 531.345947,677.832397 
z"/>
<path fill="#000000" opacity="1.000000" stroke="none" 
	d="
M407.537415,335.682190 
	C389.088318,342.132599 377.376740,354.766876 371.133453,372.617249 
	C369.877228,376.208893 368.080048,377.696594 364.293182,377.487762 
	C361.668274,377.343048 359.007324,378.034943 356.353027,378.204590 
	C348.998505,378.674561 347.075775,377.445282 344.230469,370.655640 
	C340.707520,362.248962 330.810791,358.772827 323.091614,363.492126 
	C319.526886,365.671478 316.664398,365.468475 313.672943,362.651306 
	C310.886719,360.027374 307.844147,357.676910 305.034454,355.076447 
	C300.047119,350.460632 299.739441,347.872742 303.236267,341.952850 
	C307.514954,334.709320 302.713623,325.283234 294.243958,324.298859 
	C288.907806,323.678680 286.745789,321.260223 286.678650,315.759369 
	C286.642029,312.761292 286.664185,309.762238 286.679718,306.763733 
	C286.718597,299.252686 286.745941,298.873413 294.046326,297.475159 
	C299.285492,296.471680 302.713898,294.471375 304.102386,288.840668 
	C304.913239,285.552307 305.299561,283.205505 303.175201,280.171448 
	C298.745361,273.844727 299.029297,272.535034 304.069550,266.712799 
	C305.808655,264.703857 307.804535,262.917786 309.674164,261.021088 
	C316.482513,254.114243 316.502960,254.067368 325.466736,258.391907 
	C327.300079,259.276398 328.836151,259.416260 330.616180,258.368896 
	C332.184998,257.445831 333.840057,256.507690 335.581146,256.070099 
	C340.437592,254.849472 343.118378,252.018082 344.148926,247.010056 
	C345.036530,242.696930 347.698822,240.123383 352.747101,240.581635 
	C357.042877,240.971588 361.407806,240.794785 365.731934,240.618561 
	C369.475311,240.466019 372.172058,241.889801 372.562744,245.619308 
	C373.535858,254.907822 381.168457,256.908417 387.757996,260.141571 
	C390.183838,261.331818 391.971985,259.661743 393.731903,258.608551 
	C398.418884,255.803726 402.210114,256.652100 405.535095,260.833191 
	C408.228882,264.220612 411.039642,267.514984 413.795319,270.853241 
	C416.231140,273.803986 416.607941,276.644012 413.726196,279.655243 
	C409.983490,283.566223 408.011230,287.852325 410.425781,293.477844 
	C411.614716,296.247894 412.668884,298.048279 415.923401,298.993011 
	C427.694458,302.409973 426.441528,300.622070 426.287201,312.588959 
	C426.126404,325.059570 429.326324,324.801483 414.726868,328.191376 
	C410.394165,329.197357 410.212952,333.142181 407.537415,335.682190 
M316.693298,322.757477 
	C325.211700,344.789856 344.352173,355.460175 367.287354,350.463531 
	C385.108368,346.581085 399.910583,329.072205 398.644379,307.330231 
	C397.469177,287.151062 378.651367,262.178284 348.841614,267.710449 
	C324.403656,272.245728 309.234375,297.333252 316.693298,322.757477 
z"/>
<path fill="#000000" opacity="1.000000" stroke="none" 
	d="
M807.274658,427.753204 
	C807.425781,451.241852 788.653748,470.965759 765.715149,472.463715 
	C755.829590,473.109314 746.490662,471.736725 737.659058,467.469086 
	C734.621338,466.001221 732.480347,467.313477 730.231873,468.565674 
	C725.412231,471.249878 721.336060,471.778229 716.989136,467.136047 
	C712.302612,462.131226 705.732910,461.509460 699.300842,462.576477 
	C695.611633,463.188446 694.222473,462.096680 693.557556,458.641357 
	C691.424072,447.555573 689.110901,436.504242 686.848816,425.443359 
	C686.186646,422.205231 687.146729,420.026581 690.440125,418.817139 
	C693.557312,417.672394 696.531250,416.139557 699.576355,414.795776 
	C706.202148,411.871857 710.973999,407.448914 714.192078,400.611603 
	C723.907288,379.970306 742.486267,370.915955 764.958740,374.316864 
	C772.773499,375.499573 779.714966,378.014526 786.095825,382.437958 
	C787.567078,383.457855 789.583496,384.323456 789.337708,386.494690 
	C789.108032,388.524475 786.933777,388.597870 785.481506,389.192993 
	C777.936279,392.284882 770.307434,395.174225 762.782715,398.313873 
	C758.478699,400.109711 754.247009,402.166931 751.247314,405.962158 
	C742.223145,417.379578 747.402527,435.266174 761.162903,440.187805 
	C764.467896,441.369904 767.718689,440.856659 770.892639,439.550598 
	C781.356934,435.244537 791.816528,430.927124 802.294495,426.654724 
	C804.016479,425.952606 805.970581,424.412628 807.274658,427.753204 
M719.329407,443.722504 
	C721.701843,439.977783 720.573059,436.715363 717.850708,433.762177 
	C714.854126,430.511688 711.021545,430.403503 707.223694,431.637146 
	C703.281616,432.917572 700.945251,435.904755 700.346008,440.061005 
	C699.559753,445.513824 703.095947,450.200043 707.793762,449.405457 
	C711.834595,448.721954 716.019470,447.792969 719.329407,443.722504 
z"/>
<path fill="#000000" opacity="1.000000" stroke="none" 
	d="
M254.146210,590.518311 
	C259.490082,595.553772 260.427948,600.111877 257.488861,605.393616 
	C254.966614,609.926208 249.552231,612.257812 244.727402,610.888977 
	C237.855209,608.939453 234.544312,602.297852 237.070984,595.491699 
	C239.562286,588.780701 248.252319,586.680054 254.146210,590.518311 
z"/>
<path fill="#000000" opacity="1.000000" stroke="none" 
	d="
M792.321655,611.129272 
	C784.094727,608.562256 780.861267,602.374573 783.714539,595.380127 
	C786.208557,589.266296 793.251526,586.906738 799.576660,590.048462 
	C804.240051,592.364807 805.561157,596.388123 805.339844,601.216614 
	C805.131714,605.756165 802.451904,608.492981 798.556091,610.174133 
	C796.743469,610.956299 794.775818,611.453430 792.321655,611.129272 
z"/>
<path fill="#000000" opacity="1.000000" stroke="none" 
	d="
M323.910461,726.133057 
	C328.223145,733.128784 327.005585,740.192627 321.246460,743.369385 
	C315.812164,746.366943 308.553223,744.360474 305.629517,739.052551 
	C303.306763,734.835754 304.261017,728.237671 307.633820,725.192932 
	C311.618073,721.596375 318.223236,721.863708 323.910461,726.133057 
z"/>
<path fill="#000000" opacity="1.000000" stroke="none" 
	d="
M717.740112,737.821899 
	C715.853394,730.683472 718.300171,725.302002 724.061401,723.253296 
	C729.689880,721.251831 736.069153,723.927551 738.212036,729.188660 
	C740.557861,734.947815 738.196716,741.292480 732.725891,743.930786 
	C727.016602,746.684082 721.693604,744.629822 717.740112,737.821899 
z"/>
<path fill="#000000" opacity="1.000000" stroke="none" 
	d="
M587.722534,819.810425 
	C585.841797,812.981995 587.398193,808.588806 592.424438,805.816162 
	C596.788147,803.408997 603.112732,804.318848 606.213074,807.799805 
	C609.868958,811.904480 610.105042,818.043457 606.777893,822.487549 
	C602.002502,828.866211 592.401855,827.703674 587.722534,819.810425 
z"/>
<path fill="#000000" opacity="1.000000" stroke="none" 
	d="
M434.667114,819.848511 
	C432.978821,813.631836 434.441956,808.785889 438.517700,806.287842 
	C442.856720,803.628357 449.399628,804.147400 452.944397,807.432129 
	C456.248383,810.493713 457.231018,816.006348 455.096283,820.309631 
	C453.160187,824.212585 449.910583,826.172791 445.558044,826.460815 
	C440.540588,826.792969 436.797943,825.046692 434.667114,819.848511 
z"/>
<path fill="#000000" opacity="1.000000" stroke="none" 
	d="
M477.967163,388.113586 
	C516.935730,389.229034 555.420471,388.201782 593.896301,388.725189 
	C598.698914,388.790497 603.434265,387.492004 608.291382,388.591583 
	C618.647766,390.936127 625.875671,396.809998 628.264832,407.231598 
	C633.119629,428.407806 637.520020,449.688660 642.035217,470.941772 
	C642.800537,474.544067 641.660278,476.537292 637.387390,476.531708 
	C562.085022,476.433533 486.782532,476.433014 411.480072,476.421539 
	C406.955322,476.420868 405.387085,474.790619 406.288757,470.344635 
	C410.477539,449.690582 414.482300,428.992828 419.116699,408.437805 
	C422.101440,395.199707 434.337402,387.493225 448.020020,388.251923 
	C457.805023,388.794464 467.653046,388.199768 477.967163,388.113586 
z"/>
<path fill="#000000" opacity="1.000000" stroke="none" 
	d="
M529.619019,595.067749 
	C506.738281,596.100525 488.959839,587.958984 477.028992,568.447571 
	C475.635345,566.168457 474.811127,563.629517 474.271362,560.996521 
	C473.356506,556.533630 475.838287,552.008179 480.247070,550.230530 
	C484.779846,548.402893 489.725433,549.636841 491.947266,553.766296 
	C497.056946,563.263000 504.683014,569.370605 515.088928,572.061829 
	C531.516235,576.310242 547.407043,570.042419 556.504395,555.732300 
	C560.112305,550.057007 565.475647,548.095703 570.292419,550.690125 
	C575.167725,553.316101 576.957581,558.914490 574.088989,565.048035 
	C566.218262,581.876831 552.574707,591.149353 534.508179,594.311890 
	C533.035583,594.569641 531.552551,594.767456 529.619019,595.067749 
z"/>
<path fill="#000000" opacity="1.000000" stroke="none" 
	d="
M434.431396,550.054565 
	C429.302887,561.222168 418.394531,568.699341 408.620453,568.038696 
	C396.736145,567.235352 386.650391,559.908020 383.051239,549.462585 
	C378.141235,535.212830 385.879578,519.536560 400.130951,514.862732 
	C415.025574,509.977936 430.591064,518.276123 435.309723,533.577637 
	C436.998199,539.052917 436.702362,544.399963 434.431396,550.054565 
z"/>
<path fill="#000000" opacity="1.000000" stroke="none" 
	d="
M666.794983,538.481689 
	C667.449524,551.872314 659.905762,561.623169 650.368652,565.417480 
	C638.874695,569.990173 626.885986,567.103638 619.120544,557.953064 
	C611.487305,548.958313 610.690063,536.862549 617.039368,526.377319 
	C623.071960,516.415283 634.383606,511.704529 645.817139,514.392944 
	C657.799866,517.210510 664.800720,525.156677 666.794983,538.481689 
z"/>
<path fill="#000000" opacity="1.000000" stroke="none" 
	d="
M588.376038,501.643768 
	C594.882141,510.429291 595.477783,517.412476 590.578613,524.837769 
	C586.239075,531.414917 577.728394,534.793274 570.108032,532.963623 
	C559.818542,530.493164 553.558289,519.366943 556.817688,509.343018 
	C560.414551,498.281158 571.787903,493.036438 582.300232,497.608856 
	C584.442749,498.540741 586.474915,499.667206 588.376038,501.643768 
M579.444641,506.996216 
	C577.812073,503.833099 575.584167,501.413727 571.672913,502.425110 
	C568.718262,503.189056 566.877380,505.482880 566.521362,508.479828 
	C566.135986,511.724274 568.281982,513.693604 570.948608,514.963562 
	C574.892883,516.841919 578.345642,513.880859 579.444641,506.996216 
z"/>
<path fill="#000000" opacity="1.000000" stroke="none" 
	d="
M489.592957,504.644653 
	C499.031342,519.940857 485.441071,533.717834 473.881897,533.488281 
	C465.117065,533.314331 457.010010,526.633301 455.741760,517.969543 
	C454.284119,508.012177 459.799774,499.168457 468.974823,496.751831 
	C477.372559,494.539948 483.969452,496.990234 489.592957,504.644653 
M473.361359,502.347443 
	C469.242889,502.370911 466.880310,504.707153 466.272797,508.493317 
	C465.758728,511.697113 468.033875,513.705322 470.621490,515.028992 
	C473.552277,516.528259 475.750458,514.735229 477.489563,512.702393 
	C480.346619,509.362885 478.817719,504.973846 473.361359,502.347443 
z"/>
<path fill="#000000" opacity="1.000000" stroke="none" 
	d="
M354.986206,328.021240 
	C354.146637,321.605835 354.385223,321.134644 360.159546,321.053131 
	C365.667145,320.975372 370.622772,319.753998 374.739227,315.880157 
	C375.799286,314.882599 377.018707,313.631592 378.635864,314.768372 
	C380.154999,315.836273 379.624298,317.424286 379.229584,318.861847 
	C377.203766,326.239105 366.593933,333.101746 359.055573,332.011993 
	C356.839539,331.691620 355.291840,330.834869 354.986206,328.021240 
z"/>
<path fill="#000000" opacity="1.000000" stroke="none" 
	d="
M340.705322,291.710388 
	C342.228088,290.728424 343.429810,289.649445 345.528564,291.357880 
	C341.381561,296.889954 338.633118,303.299683 335.321442,309.748322 
	C331.550537,304.791168 333.811554,297.800049 340.705322,291.710388 
z"/>
</svg>